<svg width="1200" height="630" xmlns="http://www.w3.org/2000/svg">
  <defs>
    <linearGradient id="bg" x1="0" y1="0" x2="1" y2="1">
      <stop offset="0%" stop-color="#2d1b69"/>
      <stop offset="50%" stop-color="#0f172a"/>
      <stop offset="100%" stop-color="#5b21b6"/>
    </linearGradient>
  </defs>
  <rect width="1200" height="630" fill="url(#bg)"/>
  <!-- Dot pattern -->
  <g opacity="0.06">
    <circle cx="50" cy="45" r="1.5" fill="white"/><circle cx="50" cy="135" r="1.5" fill="white"/><circle cx="50" cy="225" r="1.5" fill="white"/><circle cx="50" cy="315" r="1.5" fill="white"/><circle cx="50" cy="405" r="1.5" fill="white"/><circle cx="50" cy="495" r="1.5" fill="white"/><circle cx="50" cy="585" r="1.5" fill="white"/><circle cx="150" cy="45" r="1.5" fill="white"/><circle cx="150" cy="135" r="1.5" fill="white"/><circle cx="150" cy="225" r="1.5" fill="white"/><circle cx="150" cy="315" r="1.5" fill="white"/><circle cx="150" cy="405" r="1.5" fill="white"/><circle cx="150" cy="495" r="1.5" fill="white"/><circle cx="150" cy="585" r="1.5" fill="white"/><circle cx="250" cy="45" r="1.5" fill="white"/><circle cx="250" cy="135" r="1.5" fill="white"/><circle cx="250" cy="225" r="1.5" fill="white"/><circle cx="250" cy="315" r="1.5" fill="white"/><circle cx="250" cy="405" r="1.5" fill="white"/><circle cx="250" cy="495" r="1.5" fill="white"/><circle cx="250" cy="585" r="1.5" fill="white"/><circle cx="350" cy="45" r="1.5" fill="white"/><circle cx="350" cy="135" r="1.5" fill="white"/><circle cx="350" cy="225" r="1.5" fill="white"/><circle cx="350" cy="315" r="1.5" fill="white"/><circle cx="350" cy="405" r="1.5" fill="white"/><circle cx="350" cy="495" r="1.5" fill="white"/><circle cx="350" cy="585" r="1.5" fill="white"/><circle cx="450" cy="45" r="1.5" fill="white"/><circle cx="450" cy="135" r="1.5" fill="white"/><circle cx="450" cy="225" r="1.5" fill="white"/><circle cx="450" cy="315" r="1.5" fill="white"/><circle cx="450" cy="405" r="1.5" fill="white"/><circle cx="450" cy="495" r="1.5" fill="white"/><circle cx="450" cy="585" r="1.5" fill="white"/><circle cx="550" cy="45" r="1.5" fill="white"/><circle cx="550" cy="135" r="1.5" fill="white"/><circle cx="550" cy="225" r="1.5" fill="white"/><circle cx="550" cy="315" r="1.5" fill="white"/><circle cx="550" cy="405" r="1.5" fill="white"/><circle cx="550" cy="495" r="1.5" fill="white"/><circle cx="550" cy="585" r="1.5" fill="white"/><circle cx="650" cy="45" r="1.5" fill="white"/><circle cx="650" cy="135" r="1.5" fill="white"/><circle cx="650" cy="225" r="1.5" fill="white"/><circle cx="650" cy="315" r="1.5" fill="white"/><circle cx="650" cy="405" r="1.5" fill="white"/><circle cx="650" cy="495" r="1.5" fill="white"/><circle cx="650" cy="585" r="1.5" fill="white"/><circle cx="750" cy="45" r="1.5" fill="white"/><circle cx="750" cy="135" r="1.5" fill="white"/><circle cx="750" cy="225" r="1.5" fill="white"/><circle cx="750" cy="315" r="1.5" fill="white"/><circle cx="750" cy="405" r="1.5" fill="white"/><circle cx="750" cy="495" r="1.5" fill="white"/><circle cx="750" cy="585" r="1.5" fill="white"/><circle cx="850" cy="45" r="1.5" fill="white"/><circle cx="850" cy="135" r="1.5" fill="white"/><circle cx="850" cy="225" r="1.5" fill="white"/><circle cx="850" cy="315" r="1.5" fill="white"/><circle cx="850" cy="405" r="1.5" fill="white"/><circle cx="850" cy="495" r="1.5" fill="white"/><circle cx="850" cy="585" r="1.5" fill="white"/><circle cx="950" cy="45" r="1.5" fill="white"/><circle cx="950" cy="135" r="1.5" fill="white"/><circle cx="950" cy="225" r="1.5" fill="white"/><circle cx="950" cy="315" r="1.5" fill="white"/><circle cx="950" cy="405" r="1.5" fill="white"/><circle cx="950" cy="495" r="1.5" fill="white"/><circle cx="950" cy="585" r="1.5" fill="white"/><circle cx="1050" cy="45" r="1.5" fill="white"/><circle cx="1050" cy="135" r="1.5" fill="white"/><circle cx="1050" cy="225" r="1.5" fill="white"/><circle cx="1050" cy="315" r="1.5" fill="white"/><circle cx="1050" cy="405" r="1.5" fill="white"/><circle cx="1050" cy="495" r="1.5" fill="white"/><circle cx="1050" cy="585" r="1.5" fill="white"/><circle cx="1150" cy="45" r="1.5" fill="white"/><circle cx="1150" cy="135" r="1.5" fill="white"/><circle cx="1150" cy="225" r="1.5" fill="white"/><circle cx="1150" cy="315" r="1.5" fill="white"/><circle cx="1150" cy="405" r="1.5" fill="white"/><circle cx="1150" cy="495" r="1.5" fill="white"/><circle cx="1150" cy="585" r="1.5" fill="white"/>
  </g>
  <!-- Site name -->
  <text x="60" y="60" font-size="22" font-weight="800" fill="#60a5fa" font-family="sans-serif">AI Solo Builder</text>
  <!-- Category badge -->
  <rect x="56" y="350" width="130" height="32" rx="16" fill="rgba(139,92,246,0.3)"/>
  <text x="76" y="371" font-size="15" font-weight="600" fill="#c4b5fd" font-family="sans-serif">­ЪЏа№ИЈ Т│еуЏ«сЃёсЃ╝сЃФ</text>
  <!-- Title -->
  <text x="60" y="400" font-size="44" font-weight="800" fill="white" font-family="sans-serif">n8n Рђћ сѓфсЃ╝сЃЌсЃ│сѓйсЃ╝сѓ╣сЂ«AIсЃ»сЃ╝сѓ»сЃЋсЃГсЃ╝УЄфтІЋтїќсЃЌсЃЕсЃЃсЃѕсЃЋсѓЕсЃ╝сЃа</text>
  <!-- Large emoji -->
  <text x="900" y="350" font-size="180" opacity="0.08">­ЪЏа№ИЈ</text>
</svg>